<svg width="59" height="59" viewBox="0 0 59 59" fill="none" xmlns="http://www.w3.org/2000/svg">
<path d="M47.1309 43.3281C45.8574 43.3281 44.8262 44.3594 44.8262 45.6328C44.8262 46.9062 45.8574 47.9375 47.1309 47.9375C48.4043 47.9375 49.4355 46.9062 49.4355 45.6328C49.4355 44.3594 48.4043 43.3281 47.1309 43.3281Z" fill="#C99A73"/>
<path d="M14.1738 43.3281C12.9004 43.3281 11.8691 44.3594 11.8691 45.6328C11.8691 46.9062 12.9004 47.9375 14.1738 47.9375C15.4473 47.9375 16.4785 46.9062 16.4785 45.6328C16.4785 44.3594 15.4473 43.3281 14.1738 43.3281Z" fill="#C99A73"/>
<path d="M8.06641 31.8047C7.43037 31.8047 6.91406 32.321 6.91406 32.957C6.91406 33.5931 7.43037 34.1094 8.06641 34.1094C8.70245 34.1094 9.21875 33.5931 9.21875 32.957C9.21875 32.321 8.70245 31.8047 8.06641 31.8047Z" fill="#C99A73"/>
<path d="M20.2812 31.8047H12.6758C12.0393 31.8047 11.5234 32.3205 11.5234 32.957C11.5234 33.5935 12.0393 34.1094 12.6758 34.1094H20.2812C20.9177 34.1094 21.4336 33.5935 21.4336 32.957C21.4336 32.3205 20.9177 31.8047 20.2812 31.8047Z" fill="#C99A73"/>
<path d="M55.543 6.45312H27.1953C25.289 6.45312 23.7383 8.00384 23.7383 9.91016V13.3672H14.3377C12.8464 13.3672 11.5279 14.3174 11.0571 15.7313C10.4575 17.5305 8.2172 24.251 7.2233 27.2331C7.14273 27.4748 6.98068 27.6878 6.76912 27.8278L2.56622 30.6298C0.959236 31.6998 0 33.4922 0 35.4242V42.1758C0 44.0821 1.55071 45.6328 3.45703 45.6328H7.25977C7.25977 49.4454 10.3612 52.5469 14.1738 52.5469C17.9865 52.5469 21.0879 49.4454 21.0879 45.6328H40.2168C40.2168 49.4454 43.3182 52.5469 47.1309 52.5469C50.9435 52.5469 54.0449 49.4454 54.0449 45.6328H55.543C57.4493 45.6328 59 44.0821 59 42.1758V9.91016C59 8.00384 57.4493 6.45312 55.543 6.45312ZM11.5856 21.4336H19.1289V27.1953H9.66528L11.5856 21.4336ZM14.1738 50.2422C11.6324 50.2422 9.56445 48.1743 9.56445 45.6328C9.56445 43.0567 11.6697 41.0234 14.1738 41.0234C16.6793 41.0234 18.7832 43.0576 18.7832 45.6328C18.7832 48.1743 16.7153 50.2422 14.1738 50.2422ZM20.6922 43.3281C19.7298 40.6089 17.1249 38.7188 14.1738 38.7188C11.2214 38.7188 8.61557 40.6102 7.65498 43.3281H3.45703C2.82144 43.3281 2.30469 42.8114 2.30469 42.1758V41.0234H6.10742C6.74391 41.0234 7.25977 40.5076 7.25977 39.8711C7.25977 39.2346 6.74391 38.7188 6.10742 38.7188H2.30469V35.4242C2.30469 34.2647 2.87996 33.1898 3.8437 32.5479L8.0448 29.7476C8.15868 29.672 8.26627 29.5882 8.3698 29.5H20.2812C20.9177 29.5 21.4336 28.9841 21.4336 28.3477V20.2812C21.4336 19.6448 20.9177 19.1289 20.2812 19.1289H12.3539L13.2434 16.4601C13.4005 15.9883 13.8403 15.6719 14.3372 15.6719H23.7383V43.3281H20.6922ZM47.1309 50.2422C44.5894 50.2422 42.5215 48.1743 42.5215 45.6328C42.5215 43.0567 44.6268 41.0234 47.1309 41.0234C49.6408 41.0234 51.7402 43.0621 51.7402 45.6328C51.7402 48.1743 49.6723 50.2422 47.1309 50.2422ZM56.6953 42.1758C56.6953 42.8114 56.1786 43.3281 55.543 43.3281H53.6493C52.6869 40.6089 50.0819 38.7188 47.1309 38.7188C44.1784 38.7188 41.5726 40.6102 40.612 43.3281H26.043C26.043 41.0468 26.043 11.2624 26.043 9.91016C26.043 9.27457 26.5597 8.75781 27.1953 8.75781H55.543C56.1786 8.75781 56.6953 9.27457 56.6953 9.91016V42.1758Z" fill="#C99A73"/>
<path d="M51.7402 11.0625C47.3001 11.0625 43.6738 14.6537 43.6738 19.1289V28.3477C43.6738 28.9841 44.1897 29.5 44.8262 29.5H45.9785V35.2617C45.9785 37.168 47.5292 38.7188 49.4355 38.7188C51.3455 38.7188 52.8926 37.1716 52.8926 35.2617C52.8926 34.2953 52.8926 13.874 52.8926 12.2148C52.8926 11.5784 52.3767 11.0625 51.7402 11.0625ZM45.9785 19.1289C45.9785 16.3124 47.9857 14.0073 50.5879 13.4815V27.1953H45.9785V19.1289ZM49.4355 36.4141C48.8 36.4141 48.2832 35.8973 48.2832 35.2617V29.5H50.5879V35.2617C50.5879 35.8978 50.0716 36.4141 49.4355 36.4141Z" fill="#C99A73"/>
<path d="M40.2168 11.0625C39.5803 11.0625 39.0645 11.5784 39.0645 12.2148V16.8242C39.0645 18.3263 38.1012 19.6074 36.7598 20.0832V12.2148C36.7598 11.5784 36.2439 11.0625 35.6074 11.0625C34.9709 11.0625 34.4551 11.5784 34.4551 12.2148V20.085C33.1429 19.6214 32.1504 18.3601 32.1504 16.8242V12.2148C32.1504 11.5784 31.6345 11.0625 30.998 11.0625C30.3616 11.0625 29.8457 11.5784 29.8457 12.2148V16.8242C29.8457 19.634 31.8488 21.944 34.4551 22.4707V27.1953H33.3027C32.6662 27.1953 32.1504 27.7112 32.1504 28.3477V35.2617C32.1504 37.168 33.7011 38.7188 35.6074 38.7188C37.5137 38.7188 39.0645 37.168 39.0645 35.2617V28.3477C39.0645 27.7112 38.5486 27.1953 37.9121 27.1953H36.7598V22.4698C39.3867 21.9346 41.3691 19.6069 41.3691 16.8242V12.2148C41.3691 11.5784 40.8533 11.0625 40.2168 11.0625ZM36.7598 35.2617C36.7598 35.8973 36.243 36.4141 35.6074 36.4141C34.9718 36.4141 34.4551 35.8973 34.4551 35.2617V29.5H36.7598V35.2617Z" fill="#C99A73"/>
</svg>
