<svg width="55" height="55" viewBox="0 0 55 55" fill="none" xmlns="http://www.w3.org/2000/svg">
<g clip-path="url(#clip0)">
<path d="M21.1621 34.6974C21.755 34.6974 22.2363 34.2161 22.2363 33.6232C22.2363 33.0303 21.755 32.549 21.1621 32.549C20.5687 32.549 20.0879 33.0303 20.0879 33.6232C20.0879 34.2161 20.5687 34.6974 21.1621 34.6974Z" fill="#C99A73"/>
<path d="M52.769 37.2927L51.1904 30.3921C51.1887 30.3846 51.187 30.3774 51.1853 30.3703C50.8253 28.9335 49.5392 27.9298 48.0584 27.9298H35.7161C38.6031 25.2342 40.4977 20.4388 40.4977 16.1134C40.4977 11.2533 38.0056 7.875 33.8354 6.80749C36.0166 4.46308 36.2297 1.27608 36.2377 1.13761C36.2553 0.840099 36.1488 0.548884 35.9431 0.3332C35.7375 0.117516 35.4518 -0.00627107 35.1534 0.000442824C35.004 0.00212129 31.4675 0.0680014 29.0887 2.44808C28.5444 2.9919 28.1139 3.59657 27.7736 4.20669C26.902 2.62054 25.4531 1.37259 23.65 0.771701C23.0873 0.584132 22.4788 0.888355 22.2913 1.45148C22.1037 2.01419 22.4079 2.62222 22.9706 2.80979C24.7637 3.40732 26.0616 4.90872 26.4279 6.70762C25.7615 6.53348 25.0784 6.44536 24.3848 6.44536C18.6721 6.44536 14.7168 9.93532 14.7168 16.1134C14.7168 20.4384 16.6113 25.2338 19.4983 27.9298H7.15607C5.67524 27.9298 4.38911 28.9335 4.02908 30.3703C4.0274 30.3774 4.02572 30.3846 4.02404 30.3917L2.44502 37.2927C1.09721 37.6779 0.107327 38.9204 0.107327 40.3908V42.5392C0.107327 44.0096 1.09721 45.2516 2.44502 45.6373L4.02404 52.5379C4.02572 52.545 4.0274 52.5522 4.02908 52.5593C4.38911 53.9965 5.67482 55.0002 7.15607 55.0002H48.0579C49.5392 55.0002 50.8249 53.9965 51.1849 52.5593C51.187 52.5522 51.1887 52.545 51.1904 52.5379L52.769 45.6373C54.1172 45.2516 55.1071 44.0096 55.1071 42.5392V40.3908C55.1071 38.9209 54.1172 37.6779 52.769 37.2927ZM30.6077 3.96709C31.5854 2.98938 32.8892 2.53661 33.8539 2.32723C33.6063 3.25542 33.1103 4.50253 32.1263 5.48611C31.7642 5.84824 31.332 6.17009 30.8381 6.44578C30.8355 6.44578 30.8326 6.44536 30.8297 6.44536C30.2267 6.44536 29.6329 6.51417 29.0501 6.64593C29.3333 5.78026 29.8108 4.76353 30.6077 3.96709ZM16.8652 16.1134C16.8652 9.32687 22.1239 8.5938 24.3848 8.5938C25.2978 8.5938 26.1883 8.80445 27.0334 9.21609C27.3498 9.40828 27.7539 9.42674 28.0854 9.26225C28.0879 9.26099 28.09 9.26015 28.0925 9.2589C29.0836 8.75703 30.0144 8.57618 31.0806 8.59716C33.2681 8.64499 38.3496 9.47332 38.3496 16.1134C38.3496 21.4324 34.8798 27.9298 30.8301 27.9298H24.3848C20.335 27.9298 16.8652 21.4324 16.8652 16.1134ZM6.11542 30.8835C6.23879 30.4089 6.66554 30.0782 7.15607 30.0782H48.0584C48.5493 30.0782 48.9756 30.4089 49.099 30.8835L50.537 37.1681H34.769C34.3066 37.1681 33.8962 37.4639 33.7502 37.9024L33.2786 39.3166H21.9359L21.4642 37.9024C21.3182 37.4639 20.9078 37.1681 20.4454 37.1681H4.67739L6.11542 30.8835ZM49.099 52.0465C48.9756 52.5211 48.5493 52.8518 48.0584 52.8518H7.15607C6.66554 52.8518 6.23879 52.5211 6.11542 52.0465L4.67739 45.7619H50.5366L49.099 52.0465ZM52.9587 42.5392C52.9587 43.1317 52.4769 43.6134 51.8844 43.6134H3.32999C2.73749 43.6134 2.25577 43.1317 2.25577 42.5392V40.3908C2.25577 39.7987 2.73749 39.3166 3.32999 39.3166H19.6712L20.1428 40.7307C20.2893 41.1692 20.6997 41.465 21.1621 41.465H34.0523C34.5148 41.465 34.9251 41.1692 35.0716 40.7307L35.5432 39.3166H51.8786C51.8802 39.3166 51.8819 39.317 51.8836 39.317C51.8844 39.317 51.8853 39.3166 51.8861 39.3166C52.4778 39.3174 52.9587 39.7991 52.9587 40.3908V42.5392Z" fill="#C99A73"/>
<path d="M25.459 34.6974H34.0523C34.6457 34.6974 35.1266 34.2165 35.1266 33.6232C35.1266 33.0298 34.6457 32.549 34.0523 32.549H25.459C24.8656 32.549 24.3848 33.0298 24.3848 33.6232C24.3848 34.2165 24.8656 34.6974 25.459 34.6974Z" fill="#C99A73"/>
<path d="M34.0523 16.1133C34.0523 16.7066 34.5336 17.1875 35.1266 17.1875C35.7199 17.1875 36.2008 16.7066 36.2008 16.1133C36.2008 15.1457 36.1051 13.7265 35.2759 12.5839C34.3889 11.362 32.8929 10.7422 30.8297 10.7422C30.2367 10.7422 29.7554 11.2235 29.7554 11.8164C29.7554 12.4098 30.2367 12.8906 30.8297 12.8906C33.5253 12.8906 34.0523 14.0723 34.0523 16.1133Z" fill="#C99A73"/>
</g>
<defs>
<clipPath id="clip0">
<rect width="55" height="55" fill="white"/>
</clipPath>
</defs>
</svg>
