<svg width="59" height="50" viewBox="0 0 59 50" fill="none" xmlns="http://www.w3.org/2000/svg">
<path d="M31.5 24C31.5 23.7242 31.7242 23.5 32 23.5C32.2758 23.5 32.5 23.7242 32.5 24C32.5 24.2758 32.2758 24.5 32 24.5C31.7242 24.5 31.5 24.2758 31.5 24Z" fill="#C99A73" stroke="#C99A73"/>
<path d="M55.043 43.1176V43.6176H55.543C57.1753 43.6176 58.5 44.9396 58.5 46.5588C58.5 48.1817 57.1789 49.5 55.543 49.5H3.45703C1.82469 49.5 0.5 48.1781 0.5 46.5588C0.5 44.936 1.82108 43.6176 3.45703 43.6176H3.95703V43.1176C3.95703 30.6303 13.7794 20.4279 25.7591 18.6566L26.5494 18.5397L26.0989 17.88C25.652 17.2255 25.3906 16.4369 25.3906 15.5882C25.3906 13.3367 27.2325 11.5 29.5 11.5C31.7675 11.5 33.6094 13.3367 33.6094 15.5882C33.6094 16.4369 33.348 17.2255 32.9011 17.88L32.4506 18.5397L33.2409 18.6566C45.2681 20.4349 55.043 30.6723 55.043 43.1176ZM53.2383 43.6176H53.7383V43.1176C53.7383 30.0963 42.4449 19.6765 29.5 19.6765C16.3726 19.6765 5.26172 30.3903 5.26172 43.1176V43.6176H5.76172H53.2383ZM29.5 12.7941C27.9553 12.7941 26.6953 14.045 26.6953 15.5882C26.6953 17.1314 27.9553 18.3824 29.5 18.3824C31.0447 18.3824 32.3047 17.1314 32.3047 15.5882C32.3047 14.045 31.0447 12.7941 29.5 12.7941ZM3.45703 48.2059H55.543C56.453 48.2059 57.1953 47.4703 57.1953 46.5588C57.1953 45.6478 56.4525 44.9118 55.543 44.9118H3.45703C2.54702 44.9118 1.80469 45.6474 1.80469 46.5588C1.80469 47.4698 2.54747 48.2059 3.45703 48.2059Z" fill="#C99A73" stroke="#C99A73"/>
<path d="M48.4455 34.6665L48.4456 34.6667C48.5796 34.9489 48.4587 35.3 48.1289 35.4432L48.1288 35.4432C47.789 35.5909 47.4047 35.4386 47.2643 35.1431C45.3219 31.0476 40.9641 27.4307 35.9155 25.6516C35.572 25.5305 35.4262 25.1857 35.5375 24.897L35.5375 24.8969C35.6536 24.5955 36.0226 24.4152 36.3745 24.5393L36.3746 24.5394C41.8605 26.4731 46.3628 30.2756 48.4455 34.6665Z" fill="#C99A73" stroke="#C99A73"/>
<path fill-rule="evenodd" clip-rule="evenodd" d="M7.58392 2C4.78451 2 2.5626 4.26964 3.0735 7.52728C3.51691 10.3545 11.1521 16 12 16C12.8479 16 20.4831 10.3545 20.9265 7.52728C21.4374 4.26957 19.2155 2 16.4161 2C14.5498 2 13.096 2.69351 12 4.08052C10.904 2.69351 9.45019 2 7.58392 2Z" stroke="#C99A73" stroke-width="3"/>
<path fill-rule="evenodd" clip-rule="evenodd" d="M45.3106 9C43.2888 9 41.6841 10.7833 42.0531 13.3429C42.3733 15.5643 47.8876 20 48.5 20C49.1124 20 54.6267 15.5643 54.9469 13.3429C55.3159 10.7832 53.7112 9 51.6894 9C50.3415 9 49.2916 9.5449 48.5 10.6347C47.7084 9.5449 46.6585 9 45.3106 9Z" stroke="#C99A73" stroke-width="2.5"/>
<path fill-rule="evenodd" clip-rule="evenodd" d="M18.0559 28C16.1897 28 14.7084 29.7833 15.049 32.3429C15.3446 34.5643 20.4347 39 21 39C21.5653 39 26.6554 34.5643 26.951 32.3429C27.2916 29.7832 25.8103 28 23.9441 28C22.6999 28 21.7307 28.5449 21 29.6347C20.2693 28.5449 19.3001 28 18.0559 28Z" stroke="#C99A73" stroke-width="2.5"/>
</svg>
