<svg width="52" height="52" viewBox="0 0 52 52" fill="none" xmlns="http://www.w3.org/2000/svg">
<g clip-path="url(#clip0)">
<path d="M5.38913 42.8459C4.82895 42.8459 4.3739 43.3009 4.3739 43.8611C4.3739 44.4217 4.82895 44.8767 5.38913 44.8767C5.94971 44.8767 6.40436 44.4217 6.40436 43.8611C6.40436 43.3009 5.94971 42.8459 5.38913 42.8459Z" fill="#C99A73"/>
<path d="M5.38913 32.6928C4.82855 32.6928 4.3739 33.1475 4.3739 33.708V39.8002C4.3739 40.3608 4.82855 40.8154 5.38913 40.8154C5.94971 40.8154 6.40436 40.3608 6.40436 39.8002V33.708C6.40436 33.1475 5.9501 32.6928 5.38913 32.6928Z" fill="#C99A73"/>
<path d="M51.1208 5.62163L45.9125 4.91863L43.765 0.56613C43.5937 0.21939 43.241 0 42.8546 0C42.4678 0 42.1151 0.21939 41.9437 0.56613L39.7954 4.91982C34.4856 5.66368 34.6669 5.59307 34.4273 5.69503C34.1837 5.59108 34.3495 5.66091 29.0591 4.91982L26.9109 0.56613C26.7399 0.21939 26.3868 0 26.0004 0C25.614 0 25.2609 0.21939 25.0899 0.56613L22.9412 4.91982C17.6314 5.66368 17.8127 5.59307 17.5735 5.69503C17.3295 5.59108 17.4957 5.66091 12.2054 4.91982L10.0567 0.56613C9.8857 0.21939 9.53301 0 9.1462 0C8.75979 0 8.4067 0.21939 8.23571 0.56613L6.08783 4.91863L0.879982 5.62163C0.486031 5.67519 0.159525 5.9529 0.0440768 6.33336C-0.0709742 6.71382 0.0460604 7.12642 0.344003 7.38945L4.1875 10.7795L3.37183 15.5374C3.30637 15.9183 3.46308 16.3031 3.7757 16.5305C4.08832 16.7578 4.5029 16.7875 4.84488 16.6078L9.1462 14.3465L13.4479 16.6078C13.7911 16.7883 14.2057 16.7566 14.5171 16.5305C14.8297 16.3031 14.986 15.9183 14.921 15.5374L14.1037 10.7716L17.5735 7.63701L21.0429 10.7716L20.2256 15.5374C20.1602 15.9183 20.3169 16.3031 20.6295 16.5305C20.9413 16.7566 21.3559 16.7883 21.6991 16.6078L24.8804 14.9352C24.4222 18.6724 22.4469 21.8399 18.8787 24.5745C18.8204 24.6173 18.4645 24.8594 16.3325 26.1646C15.4113 26.7283 12.6965 28.0554 10.3983 29.2039C9.88054 28.2589 8.87642 27.6166 7.72512 27.6166H1.02399C0.463418 27.6166 0.00876801 28.0709 0.00876801 28.6318V48.9379C0.00876801 49.4985 0.463418 49.9532 1.02399 49.9532H7.72512C8.88753 49.9532 9.89958 49.2982 10.413 48.3381C16.0873 50.8514 23.693 51.9836 28.9897 51.9836H35.1382C37.3817 51.9836 39.1995 50.1666 39.1995 47.9227C39.1995 47.0876 38.946 46.3108 38.5124 45.6649C40.081 45.1163 41.23 43.617 41.23 41.831C41.23 40.9958 40.9765 40.2191 40.5428 39.5728C42.1115 39.0241 43.2608 37.5253 43.2608 35.7388C43.2608 34.5272 42.7268 33.439 41.8826 32.6939C42.776 31.9048 43.2608 30.8079 43.2608 29.6471C43.2608 27.4079 41.4386 25.5858 39.1995 25.5858H31.6006C32.6364 22.7845 33.1078 19.3016 33.1078 16.7812V15.23C33.1078 13.6308 32.3675 12.1137 31.019 11.129L30.9579 10.7719L34.4277 7.63701L37.8974 10.7719L37.0798 15.5374C37.0147 15.9183 37.171 16.3035 37.4841 16.5305C37.7967 16.7578 38.2113 16.7875 38.5532 16.6078L42.8546 14.3465L47.1559 16.6078C47.4994 16.7883 47.9136 16.757 48.2251 16.5305C48.5377 16.3035 48.6944 15.9183 48.6293 15.5374L47.8133 10.7799L51.6568 7.38945C51.9547 7.12682 52.0721 6.71422 51.9567 6.33376C51.8412 5.9529 51.5147 5.67519 51.1208 5.62163ZM12.328 9.63929C12.0697 9.87257 11.9491 10.2217 12.0078 10.5645L12.5719 13.8529L9.6187 12.3005C9.47112 12.2228 9.30846 12.1835 9.1462 12.1835C8.98433 12.1835 8.82168 12.2228 8.67409 12.3005L5.72085 13.8529L6.285 10.5645C6.34451 10.2173 6.21994 9.86424 5.95572 9.63136L3.35437 7.33668L6.89517 6.85863C7.23 6.8134 7.52041 6.60433 7.66998 6.30162L9.1462 3.3099L10.6228 6.30162C10.772 6.60393 11.0612 6.81221 11.3949 6.85823L14.8761 7.33668L12.328 9.63929ZM8.74035 46.9071C8.74035 47.4669 8.2849 47.9223 7.72472 47.9223H2.03922V29.6471H7.72472C8.2849 29.6471 8.74035 30.1025 8.74035 30.6623V46.9071ZM26.0004 25.5858C25.4398 25.5858 24.9852 26.0404 24.9852 26.601C24.9852 27.162 25.4398 27.6162 26.0004 27.6162H39.1991C40.3191 27.6162 41.23 28.5271 41.23 29.6471C41.23 30.7682 40.3207 31.6775 39.1991 31.6775H32.0921C31.5316 31.6775 31.0769 32.1322 31.0769 32.6927C31.0769 33.2537 31.5316 33.708 32.0921 33.708H39.1991C40.3191 33.708 41.23 34.6192 41.23 35.7388C41.23 36.86 40.3207 37.7693 39.1991 37.7693C37.753 37.7693 33.5414 37.7693 32.0921 37.7693C31.5316 37.7693 31.0769 38.2239 31.0769 38.7845C31.0769 39.3455 31.5316 39.8001 32.0921 39.8001H37.1687C38.2882 39.8001 39.1991 40.711 39.1991 41.8306C39.1991 42.9521 38.2902 43.861 37.1687 43.861H32.0921C31.5316 43.861 31.0769 44.3157 31.0769 44.8766C31.0769 45.4372 31.5316 45.8919 32.0921 45.8919H35.1382C36.2578 45.8919 37.1687 46.8028 37.1687 47.9223C37.1687 49.0439 36.2598 49.9532 35.1382 49.9532H28.9893C23.7597 49.9532 16.2024 48.811 10.7708 46.2699V31.2879C13.5193 29.9089 16.325 28.5501 17.393 27.8963C19.8317 26.403 20.0209 26.2578 20.111 26.1884C24.7515 22.6317 27.01 18.3887 27.0156 13.2178C27.0156 13.2138 27.0156 13.2102 27.0156 13.2063C27.0156 13.2035 27.0156 13.2015 27.0156 13.1991C27.0156 12.6382 27.4707 12.1835 28.0312 12.1835C29.6987 12.1835 31.0769 13.534 31.0769 15.2296V16.7812C31.0769 19.2572 30.554 22.9539 29.4138 25.5858H26.0004ZM29.1817 9.63929C29.01 9.79481 28.9005 10.0023 28.8632 10.2245C28.589 10.1788 28.3109 10.1531 28.0308 10.1531C26.561 10.1531 25.3493 11.1897 25.055 12.5489L22.575 13.8529L23.1388 10.5645C23.1975 10.2217 23.0769 9.87257 22.819 9.63929L20.2704 7.33668L23.7517 6.85823C24.0854 6.81221 24.375 6.60393 24.5238 6.30162L26.0004 3.3099L27.4766 6.30162C27.6258 6.60393 27.9154 6.81221 28.249 6.85823L31.7303 7.33668L29.1817 9.63929ZM46.045 9.63136C45.7808 9.86424 45.6562 10.2173 45.7158 10.5645L46.2799 13.8529L43.3271 12.3005C43.1791 12.2228 43.0168 12.1839 42.8546 12.1839C42.6923 12.1839 42.53 12.2228 42.3821 12.3005L39.4292 13.8529L39.993 10.5645C40.0517 10.2217 39.9311 9.87257 39.6732 9.63929L37.1246 7.33668L40.6059 6.85823C40.9396 6.81221 41.2292 6.60393 41.3779 6.30162L42.8546 3.3099L44.3308 6.30162C44.4804 6.60472 44.7708 6.8134 45.1056 6.85863L48.6468 7.33668L46.045 9.63136Z" fill="#C99A73"/>
</g>
<defs>
<clipPath id="clip0">
<rect width="52" height="52" fill="white"/>
</clipPath>
</defs>
</svg>
