<svg width="25" height="25" viewBox="0 0 25 25" fill="none" xmlns="http://www.w3.org/2000/svg">
<path fill-rule="evenodd" clip-rule="evenodd" d="M10.8737 6.83674C10.7642 6.31054 10.5522 6.26009 10.3598 6.21588C10.2031 6.17847 10.0227 6.144 9.84232 6.10954C9.66416 6.07551 9.35644 6.09139 9.05328 6.33714C8.74835 6.58007 7.9142 7.15249 7.63986 8.58854C7.36598 10.0222 8.07178 11.5957 8.16824 11.8157C8.26738 12.0338 9.42364 15.4058 11.9483 17.1003C14.0478 18.507 14.55 18.4038 15.0535 18.4502C15.5598 18.4946 16.7896 18.0501 17.1448 17.411C17.4996 16.7744 17.6111 16.1909 17.5676 16.0556C17.5242 15.9204 17.3576 15.8139 17.1139 15.6155C16.8724 15.4175 15.6773 14.4599 15.4467 14.3138C15.2179 14.1705 15.0467 14.0881 14.8108 14.3442C14.5749 14.6003 13.9303 15.1591 13.735 15.3234C13.5398 15.4878 13.3793 15.482 13.1351 15.286C12.8936 15.088 12.0816 14.6143 11.2382 13.4227C10.582 12.4959 10.2207 11.4387 10.1186 11.1155C10.016 10.7948 10.1866 10.6631 10.3504 10.5425C10.4977 10.4363 10.6872 10.2534 10.8556 10.1089C11.0218 9.96392 11.0893 9.85235 11.2178 9.67528C11.344 9.49778 11.3321 9.31878 11.2932 9.15953C11.2544 9.00028 11.0041 7.45903 10.8737 6.83674Z" fill="white"/>
<path d="M3.65936 19.8553L4.1337 20.0134L4.22176 19.7492L4.04356 19.5353L3.65936 19.8553ZM2.27778 24L1.80344 23.8419L1.52418 24.6797L2.38624 24.4881L2.27778 24ZM7.47234 22.8457L7.69121 22.3961L7.53427 22.3197L7.36388 22.3576L7.47234 22.8457ZM23.5 12.5C23.5 18.5751 18.5751 23.5 12.5 23.5V24.5C19.1274 24.5 24.5 19.1274 24.5 12.5H23.5ZM12.5 1.5C18.5751 1.5 23.5 6.42487 23.5 12.5H24.5C24.5 5.87258 19.1274 0.5 12.5 0.5V1.5ZM1.5 12.5C1.5 6.42487 6.42487 1.5 12.5 1.5V0.5C5.87258 0.5 0.5 5.87258 0.5 12.5H1.5ZM4.04356 19.5353C2.45509 17.6281 1.5 15.1762 1.5 12.5H0.5C0.5 15.4186 1.54261 18.0951 3.27517 20.1753L4.04356 19.5353ZM2.75212 24.1581L4.1337 20.0134L3.18502 19.6971L1.80344 23.8419L2.75212 24.1581ZM7.36388 22.3576L2.16931 23.5119L2.38624 24.4881L7.58081 23.3338L7.36388 22.3576ZM12.5 23.5C10.7746 23.5 9.14333 23.1031 7.69121 22.3961L7.25347 23.2952C8.83898 24.0672 10.6197 24.5 12.5 24.5V23.5Z" fill="white"/>
</svg>
