<svg width="26" height="26" viewBox="0 0 26 26" fill="none" xmlns="http://www.w3.org/2000/svg">
<path d="M13.614 23.7608L12.8085 23.1683H12.8085L13.614 23.7608ZM12.8382 23.7608L13.6438 23.1683L12.8382 23.7608ZM19.5342 10.3918C19.5342 11.1135 19.26 12.1337 18.7431 13.3672C18.2362 14.5767 17.5369 15.8971 16.7786 17.1876C15.2627 19.7672 13.5557 22.1524 12.8085 23.1683L14.4196 24.3533C15.1833 23.3149 16.9364 20.8667 18.5029 18.2009C19.2857 16.8687 20.0332 15.4634 20.5877 14.1402C21.1322 12.8408 21.5342 11.5212 21.5342 10.3918H19.5342ZM13.2261 3.6001C16.6506 3.6001 19.5342 6.57952 19.5342 10.3918H21.5342C21.5342 5.59761 17.8739 1.6001 13.2261 1.6001V3.6001ZM6.91803 10.3918C6.91803 6.57952 9.80165 3.6001 13.2261 3.6001V1.6001C8.57829 1.6001 4.91803 5.59761 4.91803 10.3918H6.91803ZM13.6438 23.1683C12.8965 22.1524 11.1895 19.7672 9.67364 17.1876C8.91529 15.8971 8.21601 14.5767 7.7091 13.3672C7.1922 12.1337 6.91803 11.1135 6.91803 10.3918H4.91803C4.91803 11.5212 5.32001 12.8408 5.86453 14.1402C6.41906 15.4634 7.16649 16.8687 7.94931 18.2009C9.51579 20.8667 11.2689 23.3149 12.0327 24.3533L13.6438 23.1683ZM12.8085 23.1683C13.0125 22.8909 13.4397 22.8909 13.6438 23.1683L12.0327 24.3533C12.6278 25.1625 13.8244 25.1625 14.4196 24.3533L12.8085 23.1683ZM15.7212 10.3919C15.7212 11.959 14.5446 13.1184 13.226 13.1184V15.1184C15.768 15.1184 17.7212 12.941 17.7212 10.3919H15.7212ZM13.226 7.66545C14.5446 7.66545 15.7212 8.82481 15.7212 10.3919H17.7212C17.7212 7.84289 15.768 5.66545 13.226 5.66545V7.66545ZM10.7308 10.3919C10.7308 8.82481 11.9073 7.66545 13.226 7.66545V5.66545C10.684 5.66545 8.73081 7.84289 8.73081 10.3919H10.7308ZM13.226 13.1184C11.9073 13.1184 10.7308 11.959 10.7308 10.3919H8.73081C8.73081 12.941 10.684 15.1184 13.226 15.1184V13.1184Z" fill="#FFB800"/>
</svg>
