<svg width="66" height="43" viewBox="0 0 66 43" fill="none" xmlns="http://www.w3.org/2000/svg">
<path d="M22.4699 1.05165C18.9291 2.22477 15.4034 4.6161 11.4389 8.57159C5.65858 14.3018 1.67895 20.3177 0.362488 25.311C-0.0914626 26.9654 -0.121726 30.7554 0.28683 32.0338C1.1342 34.7109 3.01054 36.2901 5.93095 36.8014C7.15662 37.012 7.41386 37.012 8.76058 36.7864C10.6974 36.4706 12.1803 35.9592 14.3442 34.8763C17.7942 33.1768 20.5482 31.0863 25.2087 26.6946C31.3976 20.8441 34.1062 18.8589 34.8476 19.5958C35.1654 19.9117 35.0443 20.1974 33.8338 21.8067C31.8515 24.4687 31.3522 26.0329 32.0483 27.3564C32.5476 28.3189 33.0621 28.6498 34.0456 28.6348C35.12 28.6197 36.3003 27.973 38.2371 26.3638C39.0694 25.6719 39.7806 25.1155 39.826 25.1155C39.8865 25.1155 40.1891 25.4162 40.5069 25.7772C41.4753 26.8751 42.2319 27.1458 44.199 27.1458L45.8635 27.1308L47.3313 26.439C48.1484 26.0479 48.8444 25.7772 48.8747 25.8374C48.905 25.8975 48.6931 26.7548 48.4056 27.7474C47.9214 29.3717 47.8609 29.7477 47.8457 31.5074C47.8306 33.5227 47.9365 34.0491 48.5569 34.9365C48.8747 35.4027 49.6918 35.7938 50.3425 35.7938C51.3109 35.7938 52.6728 34.8914 53.5655 33.6431C55.1695 31.4021 56.2136 28.3641 56.4708 25.2358C56.5313 24.6041 56.6221 24.0025 56.6827 23.9123C56.7734 23.7769 57.0156 23.807 57.6511 24.0476C59.1794 24.6041 60.5564 24.3484 61.4189 23.3107C61.9636 22.664 61.9485 22.0022 61.3735 22.0924C61.1616 22.1225 60.4051 22.1526 59.6939 22.1676C58.4833 22.1827 58.3169 22.1376 57.3636 21.6563C56.7886 21.3705 56.3044 21.0547 56.2741 20.9644C56.2438 20.8892 57.7873 19.2649 59.6787 17.3549C64.0972 12.9632 65.4136 11.2336 65.8979 9.11303C66.034 8.57159 66.034 8.25575 65.8979 7.83464C65.1715 5.57866 62.4478 5.89449 59.8301 8.52647C58.332 10.0305 57.6208 10.9479 55.9866 13.5047C53.4142 17.5354 53.6866 17.1894 53.2326 17.0691C52.2491 16.8285 51.9767 16.8134 51.7649 16.9939C51.4471 17.2646 51.4774 18.3926 51.8405 19.1296L52.128 19.7462L51.5833 20.7388C50.7056 22.288 50.0096 22.9347 48.3754 23.7318C46.9984 24.3935 46.8622 24.4387 45.6365 24.4387C44.199 24.4387 43.2911 24.0927 43.2911 23.5212C43.2911 23.2806 43.4424 23.2204 44.199 23.1302C46.9378 22.8294 49.4194 20.6486 49.4194 18.543C49.4194 17.761 48.8747 16.7683 48.1786 16.287C47.6036 15.896 47.4372 15.8659 46.1813 15.8659C44.8799 15.8659 44.7286 15.896 43.6391 16.4525C41.4299 17.5354 39.9621 19.5958 39.5536 22.1075L39.3569 23.3407L38.449 24.0777C37.9496 24.4838 37.1779 24.9951 36.7391 25.2207C36.0733 25.5366 35.8766 25.5817 35.5739 25.4463C34.9535 25.1606 35.12 24.6943 36.4213 22.8595C37.8134 20.9043 38.222 20.0771 38.222 19.2649C38.222 17.7008 36.3003 16.9789 34.1818 17.761C33.2739 18.1069 31.7154 19.0694 30.8226 19.8515C30.5502 20.1072 30.2476 20.3027 30.1871 20.3027C29.8844 20.3027 30.0963 19.9718 30.8529 19.295C32.6989 17.6256 35.8009 14.4221 36.7088 13.234C38.1615 11.3239 38.8273 9.91014 38.9332 8.54151C39.0391 7.15784 38.7667 6.46601 37.9648 6.09001C36.8753 5.57866 35.2864 6.21033 33.8641 7.7444C32.4568 9.24838 31.0496 11.5796 28.6134 16.4826C25.5416 22.6339 23.635 25.4463 20.7146 28.1234C15.6455 32.7707 9.45664 34.4552 6.64214 31.9285C4.69015 30.1839 4.58423 25.9727 6.3849 21.9571C8.41255 17.4451 12.3771 12.0759 16.7047 7.95496C20.5482 4.30027 23.6956 2.48044 24.8304 3.2174C26.3739 4.22507 24.7396 7.97 20.5936 12.9181C18.9745 14.8583 18.4903 15.7607 18.5962 16.6029C18.7778 17.9414 19.958 18.2422 21.335 17.3098C22.6969 16.3773 25.814 12.2112 27.0245 9.69958C27.993 7.69928 28.2956 6.58633 28.2805 4.96202C28.2805 1.17197 26.2377 -0.196655 22.4699 1.05165ZM36.8601 9.47398C36.8601 10.3463 35.8463 12.0308 34.0456 14.1363C32.5779 15.8659 31.8667 16.5277 31.8667 16.1968C31.8667 15.8509 33.5614 12.497 34.3634 11.2487C35.3016 9.83494 36.0582 9.02279 36.497 9.02279C36.7996 9.02279 36.8601 9.09799 36.8601 9.47398ZM63.038 9.98534C63.038 11.1735 61.4491 13.2791 57.6965 17.0992C55.2603 19.5808 55.1695 19.4153 57.1215 16.1968C58.8314 13.3843 59.9965 11.7751 61.1616 10.5719C61.9182 9.80486 62.1906 9.62438 62.5689 9.62438C62.9623 9.62438 63.038 9.68454 63.038 9.98534ZM46.6049 18.3625C47.9214 19.4003 45.6668 21.6563 43.3214 21.6563C42.6556 21.6563 42.6102 21.6262 42.6102 21.2803C42.6102 20.3929 43.7602 18.9491 44.9556 18.3625C45.7273 17.9715 46.1056 17.9715 46.6049 18.3625ZM54.3524 23.3859C54.5188 24.3033 54.2616 26.0178 53.6715 27.9279C53.4747 28.6047 52.5063 30.3794 52.1129 30.8456C51.553 31.4773 51.1596 31.6277 50.8721 31.2968C50.7359 31.1615 50.63 30.8908 50.63 30.7103C50.63 30.2591 51.0234 28.6348 51.4017 27.597C51.7195 26.6646 51.7649 26.5743 52.6425 24.6492C53.4445 22.8745 54.1557 22.3481 54.3524 23.3859Z" fill="#C99A73"/>
<path d="M38.9786 29.9433C31.6851 30.6952 25.6173 32.4248 19.5041 35.508C14.8738 37.8392 13.1034 39.3733 13.1034 41.0427C13.1034 41.9 13.406 42.3512 14.2231 42.7272C15.0402 43.1032 16.2659 43.0881 17.4916 42.6971C18.4751 42.3963 19.0653 42.0203 22.4699 39.5989C28.1897 35.5231 35.0897 32.876 42.1562 32.0338C45.0615 31.6879 45.9391 31.357 45.9391 30.59C45.9391 29.9433 45.228 29.7778 42.5799 29.7929C41.3088 29.8079 39.6898 29.8831 38.9786 29.9433Z" fill="#C99A73"/>
</svg>
