<svg width="26" height="26" viewBox="0 0 26 26" fill="none" xmlns="http://www.w3.org/2000/svg">
<path d="M6.31433 7.22441C6.22977 6.02633 6.49551 4.84616 7.19913 3.89694C7.80913 3.03642 8.60334 2.56646 9.56062 2.29182C10.3669 2.0526 10.8954 2.34571 11.1279 3.24214C11.4601 4.58233 11.9342 5.9226 12.1063 7.33371C12.1607 7.95494 11.7591 8.83331 11.3242 9.2857C10.2341 10.359 10.4606 11.14 11.288 12.7644C11.5447 13.2882 11.9523 14.1935 12.7466 15.392C13.574 16.5993 14.0119 17.2473 15.0748 16.6976C16.2556 16.1036 17.1162 16.4856 18.0071 17.4445C18.6111 18.137 19.2754 18.7319 19.8794 19.4244C20.7521 20.4543 20.7129 21.1642 20.0304 21.8916C18.8013 23.231 16.772 23.6737 15.2621 22.7767C14.4286 22.2882 13.5982 21.6488 12.9368 20.9031C10.0227 17.5826 7.92089 13.7213 6.65558 9.36331C6.45325 8.62664 6.35963 7.88114 6.31433 7.22441Z" stroke="#FFB800" stroke-width="2" stroke-miterlimit="10"/>
</svg>
